<?xml version="1.0" encoding="utf-8"?>
<!-- Generator: Adobe Illustrator 22.1.0, SVG Export Plug-In . SVG Version: 6.00 Build 0)  -->
<svg version="1.1" id="レイヤー_1" xmlns="http://www.w3.org/2000/svg" xmlns:xlink="http://www.w3.org/1999/xlink" x="0px"
	 y="0px" viewBox="0 0 253.5 46.8" style="enable-background:new 0 0 253.5 46.8;" xml:space="preserve">
<path class="path_black" fill="none" d="M22.5,4.8c0.8,1.7,0.8,4.6-1.8,9.2C16.9,20.5,10.3,32.1,6,42c-0.2,0.6-0.5,0.7-1,0.1c-0.8-0.9-1.6-3-0.2-6.7
	C7.7,27.3,16.2,11.8,21,4.8C21.6,4,22.1,4.1,22.5,4.8z"/>
<path class="path_black" fill="none"  d="M29.5,42.4c-0.2,0.6-0.6,0.6-1,0.1c-0.8-0.9-1.5-2.9-0.1-6.5c2.2-5.7,11.9-21.7,18.4-30.5c0.5-0.8,1.1-1,1.9-0.4
	c2.3,2,3,4.1,1.4,8.9c-1.9,5.8-4.1,12.8-6.4,21.2c6.5-10.7,15.3-19.6,21.9-29.9c0.5-0.8,1-0.9,1.7-0.2c2.4,2.5,1.8,5.8,0.2,8.8
	c-4.2,7.8-10.2,19.9-13.2,28.6c-0.2,0.6-0.5,0.6-1,0.2c-1-0.8-1.7-2.6-0.7-6.5c0.9-3.5,4.7-11.9,8.6-19.4
	c-6.8,8.3-13.8,17.5-18.1,25.5c-0.3,0.6-0.6,0.8-1.1,0.4c-2-1.4-2.9-3.5-2.3-7.3c0.5-3.4,2.5-11.7,5.2-19.7
	C39.8,23.7,33.1,34.4,29.5,42.4z"/>
<path class="path_black" fill="none"  d="M70.2,33.3c-1.8,3.1-3.4,6-4.6,8.6c-0.2,0.5-0.8,0.5-1.1,0.1c-0.7-1-1-2.8,0.3-6.1c0.4-0.9,0.9-2.1,1.6-3.4
	c-1.3-0.7-1.8-1.6-2-2c-0.3-0.8-0.2-1,0.7-0.9c0.8,0.1,1.7,0.2,2.7,0.3c4.7-8.2,13-20,19.4-25.3c1-0.8,1.6-0.8,2.2,0.1
	c0.6,0.8,0.8,1,1.4,2.5c0.6,1.4,0.5,2.8,0,4.4c-1.6,4.7-3.2,10.9-4.4,17.5c1.8,0.6,2.5,1.8,2.7,3.1c0.1,0.5-0.1,0.7-0.7,0.5
	c-0.7-0.2-1.6-0.3-2.6-0.4c-0.4,3.1-0.8,6.4-0.9,9.6c0,0.6-0.4,0.8-0.9,0.5c-1.2-0.5-2.2-2-2.2-5.5c0-1.2,0.1-2.8,0.2-4.6
	C77.9,32.6,73,33.3,70.2,33.3z M82.6,28.6c0.9-6.2,2.6-13.8,4.4-18.5c-4.6,5.1-10,12.4-14.6,19.5C76.2,29.4,79.8,28.7,82.6,28.6z"/>
<path class="path_black" fill="none" d="M98.6,9.1c-0.2-0.7-0.2-1,0.6-1.1c4.1-0.5,7.1-2.9,11-3.5c3.8-0.6,6.8,1.4,9.1,5.3c5.5,9.6-5.2,27.1-21.2,32.5
	c-1.7,0.6-2.8,0.4-3.8-0.4c-0.7-0.6-1.7-1.4-2.5-2.6c-1.1-1.6-1.4-2.5-0.2-6.4c1.9-5.6,6.8-15,11-21.2C100.2,11.5,99,10,98.6,9.1z
	 M104.1,17.4c-3,5.3-7.9,13.3-9.6,18.8c-0.8,2.5-0.4,3.4,1.4,2.7c16.4-6.2,23.9-23.4,20.4-29c-2.1-3.4-6.5-0.2-10.7,1.2
	C106,12.6,105.6,14.7,104.1,17.4z"/>
<path class="path_black" fill="none" d="M129.4,7.2c-0.1-0.5,0.1-0.8,0.7-0.7c5,0.3,11.6-1.4,14.9-1.5c2.5-0.1,3.8,1,4.6,2.9c0.2,0.5,0.1,0.9-0.7,0.8
	c-4.3-0.1-8.5,1-12.2,1.6c-2.4,3.6-5.3,8.8-8.3,14.2c1.6-0.3,3.2-0.4,4.3-0.5c3-0.1,4.3,0.8,4.9,2.7c0.2,0.5,0.2,0.9-0.6,0.9
	c-3.2,0-7.7,0.8-11.1,1.7c-1.7,3.4-3.4,6.7-4.6,9.5c2.9-0.9,6.8-1.7,9.3-1.9c2.9-0.1,4.4,0.8,5.1,2.6c0.2,0.5,0.1,0.9-0.6,0.9
	c-3.4-0.1-9.9,1.5-13.3,2.4c-1.1,0.3-1.8,0.3-2.5-0.6c-0.5-0.5-0.8-1.4-1.3-2.2c-0.5-1-0.5-1.8,0.1-3.4c2.8-7.4,8.8-18.5,13.8-26.3
	C130.5,9.6,129.8,8.4,129.4,7.2z"/>
<path class="path_black" fill="none" d="M167.1,10.6c-3.6,0.1-6.2-1.2-6.8-3.4c-0.2-0.5,0.1-0.8,0.7-0.8c5.3,0.4,15.3-1.8,18.7-1.7c2.5,0.1,4.8,0.7,5.7,3.1
	c0.2,0.5,0.1,1-0.7,0.9c-2.9-0.3-6.7,0.3-10.2,0.9c0.1,1.4-0.4,3.4-2,6.4c-3.6,6.5-8.7,14.9-13.4,25.9c-0.2,0.6-0.5,0.6-1,0.2
	c-0.8-0.8-1.6-2.6-0.8-5.5c1.4-4.9,7.9-17.9,13.4-26.4C169.3,10.5,168.1,10.6,167.1,10.6z"/>
<path class="path_black" fill="none" d="M205.1,25.8c1.4,0.6,2.1,1.6,2.3,2.6c0.1,0.5-0.1,0.8-0.7,0.7c-1-0.2-2.1-0.2-3.4-0.2c-2,3.9-4.1,8.2-6.1,12.7
	c-0.2,0.6-0.7,0.7-1,0.1c-0.8-1.2-1.4-2.9-0.2-6.6c0.4-1.2,1.3-3.3,2.5-5.8c-4.4,0.5-9,1.3-11.8,1.3c-1.9,3.7-3.7,7.7-5.5,11.7
	c-0.2,0.6-0.7,0.8-1.1,0.2c-0.9-1.3-1.3-2.9-0.3-6.6c0.4-1.3,1.4-3.4,2.6-6.1c-1.3-0.6-1.8-1.4-2-1.9c-0.4-0.7-0.2-1,0.8-0.9
	c0.9,0.1,1.7,0.2,2.5,0.2c3.8-8,9.4-18.4,11.9-21.8c0.5-0.7,1.1-0.6,1.4,0.1c0.9,1.7,0.7,4.6-1.5,8.9c-1.7,3.4-4.2,7.6-6.8,12.6
	c4.1-0.5,7.9-1.6,11.8-1.8c3.9-7.7,9.2-17.3,11.6-20.5c0.6-0.8,1.1-0.7,1.5,0.1c0.8,1.7,0.7,4.6-1.9,9.1
	C210,17.1,207.7,21.1,205.1,25.8z"/>
<path class="path_black" fill="none" d="M225.2,4.8c0.8,1.7,0.8,4.6-1.8,9.2c-3.7,6.5-10.3,18.1-14.7,28c-0.2,0.6-0.5,0.7-1,0.1c-0.8-0.9-1.6-3-0.2-6.7
	c2.9-8.2,11.4-23.6,16.3-30.7C224.3,4,224.8,4.1,225.2,4.8z"/>
<path class="path_black" fill="none" d="M222.6,34.9c2.4,1.9,6.5,5,10.4,5c1.7,0,2.9-0.4,3.7-1.1c1-1.1,0.7-2.4-0.1-3.1c-3.2-2.7-12.7-6.4-12.7-12.6
	c0-8.2,9.3-15.2,14.6-17.5c2.9-1.2,5.8-1.7,7.7,0.1c1.5,1.4,2.6,3.4,3,5c0.6,2.4-0.8,4.7-1.7,6c-1.6,2.1-3.3,5.2-4.1,6.7
	c-0.3,0.5-0.7,0.8-1.3,0.2c-1.1-1.1-1.9-3-0.6-5.8c1.3-2.9,5.8-7.9,4.3-9.4c-2-2.1-16.8,7.1-17.1,14.6c-0.2,3.9,7.5,7.1,10.9,9.5
	c2.3,1.6,2,4.4-0.7,7.4c-3.6,4.1-14,5.3-22.5-4.9c-0.7-0.8-0.4-1.2,0.1-1.4C218.5,33.1,221,33.6,222.6,34.9z"/>
</svg>
